<svg viewBox="0 0 512 512" xmlns="http://www.w3.org/2000/svg" fill="none">
  <defs>
    <linearGradient id="sg" x1="0" y1="0" x2="1" y2="1">
      <stop offset="0%" stop-color="#999"/>
      <stop offset="30%" stop-color="#777"/>
      <stop offset="70%" stop-color="#888"/>
      <stop offset="100%" stop-color="#666"/>
    </linearGradient>
  </defs>
  <!-- Thick stone band -->
  <circle cx="256" cy="256" r="236" stroke="url(#sg)" stroke-width="24"/>
  <!-- Outer chipped edge -->
  <circle cx="256" cy="256" r="250" stroke="#666" stroke-width="2" stroke-dasharray="20 4 6 4" opacity="0.6"/>
  <!-- Inner chipped edge -->
  <circle cx="256" cy="256" r="222" stroke="#555" stroke-width="2" stroke-dasharray="14 6 4 6" opacity="0.5"/>
  <!-- Crack lines across the stone -->
  <g stroke="#555" stroke-width="1.5" stroke-linecap="round" opacity="0.5">
    <path d="M256 216 l2 -6 -1 -8 3 -6"/>
    <path d="M340 230 l4 -4 2 -8"/>
    <path d="M172 240 l-3 -6 1 -10"/>
    <path d="M300 218 l1 -8 -2 -6 3 -4"/>
    <path d="M210 220 l-2 -6 -1 -8"/>
    <path d="M256 296 l-2 6 1 8 -3 6" />
    <path d="M180 280 l-4 4 -2 8"/>
    <path d="M330 290 l3 6 -1 10"/>
  </g>
  <!-- Surface texture dots -->
  <g fill="#666" opacity="0.3">
    <circle cx="240" cy="228" r="1.5"/><circle cx="270" cy="232" r="1"/><circle cx="290" cy="224" r="1.5"/>
    <circle cx="220" cy="240" r="1"/><circle cx="310" cy="236" r="1.5"/><circle cx="200" cy="230" r="1"/>
    <circle cx="260" cy="284" r="1.5"/><circle cx="230" cy="288" r="1"/><circle cx="300" cy="280" r="1"/>
  </g>
</svg>
